<svg viewBox="0 0 360 360" fill="none" xmlns="http://www.w3.org/2000/svg">
    <rect width="360" height="360" fill="white" />
    <g clip-path="url(#clip0_41_107)">
        <path
            d="M102.311 102.125C108.029 80.7867 129.962 68.1234 151.301 73.8411L257.553 102.311C278.892 108.029 291.555 129.962 285.837 151.301L257.367 257.553C251.649 278.891 229.716 291.555 208.377 285.837L102.125 257.367C80.7868 251.649 68.1235 229.716 73.8412 208.377L102.311 102.125Z"
            fill="#53676B" />
        <path
            d="M80.2924 212.224C62.1175 195.312 63.6997 166.231 82.8286 150.406C109.36 128.458 129.203 109.121 148.501 86.1868C165.284 66.2414 196.161 64.8272 212.974 84.7474L239.196 115.815C240.649 117.537 242.245 119.133 243.968 120.586L279.492 150.562C297.904 166.098 298.506 194.264 280.775 210.573L242.486 245.791L209.098 282.244C193.33 299.46 166.23 299.57 150.323 282.482L114.88 244.407L80.2924 212.224Z"
            fill="#7D9398" />
        <path
            d="M232.096 171.068C236.892 198.262 213.38 188.076 186.185 192.871C158.99 197.667 138.411 215.627 133.616 188.433C128.82 161.238 137.805 138.795 165 134C192.195 129.205 227.301 143.873 232.096 171.068Z"
            fill="#193035" />
        <path
            d="M193.107 177.709C194.407 192.564 186.397 198.248 180.07 198.802C173.743 199.355 165.912 200.199 164.612 185.344C163.313 170.489 171.506 160.097 177.833 159.543C184.16 158.99 191.807 162.854 193.107 177.709Z"
            fill="#C2DEE3" />
    </g>
    <defs>
        <clipPath id="clip0_41_107">
            <rect width="250" height="250" fill="white" transform="translate(55 55)" />
        </clipPath>
    </defs>
</svg>