<svg viewBox="0 0 250 250" fill="none" xmlns="http://www.w3.org/2000/svg">
	<g clip-path="url(#clip0_41_128)">
		<path
			d="M47.3113 47.1253C53.029 25.7867 74.9625 13.1234 96.3011 18.841L202.553 47.3111C223.892 53.0288 236.555 74.9623 230.837 96.3009L202.367 202.553C196.649 223.891 174.716 236.555 153.377 230.837L47.1255 202.367C25.7868 196.649 13.1235 174.716 18.8412 153.377L47.3113 47.1253Z"
			fill="#53676B" />
		<path
			d="M25.2924 157.224C7.11748 140.312 8.69974 111.231 27.8286 95.406C54.3601 73.4575 74.203 54.1208 93.5009 31.1868C110.284 11.2414 141.161 9.82718 157.974 29.7474L184.196 60.8149C185.649 62.537 187.245 64.1331 188.968 65.5863L224.492 95.5617C242.904 111.098 243.506 139.264 225.775 155.573L187.486 190.791L154.098 227.244C138.33 244.46 111.23 244.57 95.323 227.482L59.8803 189.407L25.2924 157.224Z"
			fill="#7D9398" />
		<path
			d="M177.096 116.068C181.892 143.262 158.38 133.076 131.185 137.871C103.99 142.667 83.4107 160.627 78.6156 133.433C73.8204 106.238 82.8053 83.7952 110 79C137.195 74.2048 172.301 88.873 177.096 116.068Z"
			fill="#193035" />
		<path
			d="M138.107 122.709C139.407 137.564 131.397 143.248 125.07 143.802C118.743 144.355 110.912 145.199 109.612 130.344C108.313 115.489 116.506 105.097 122.833 104.543C129.16 103.99 136.807 107.854 138.107 122.709Z"
			fill="#C2DEE3" />
	</g>
	<defs>
		<clipPath id="clip0_41_128">
			<rect width="250" height="250" fill="white" />
		</clipPath>
	</defs>
</svg>